<svg width="32" height="32" viewBox="0 0 32 32" fill="none" xmlns="http://www.w3.org/2000/svg">
<g clip-path="url(#clip0_105_2)">
<path d="M31.7722 4.7238L16.7987 31.499C16.4895 32.0518 15.6952 32.055 15.3815 31.5049L0.111107 4.72629C-0.230808 4.12688 0.281815 3.40072 0.961161 3.52224L15.9507 6.2014C16.0464 6.21849 16.1443 6.21832 16.2399 6.2009L30.9159 3.52598C31.593 3.40258 32.108 4.12315 31.7722 4.7238Z" fill="black"/>
<path d="M23.091 0.00784257L12.0103 2.17911C11.9217 2.19646 11.8415 2.24273 11.7821 2.31067C11.7227 2.3786 11.6876 2.46433 11.6823 2.5544L11.0007 14.0664C10.997 14.1296 11.008 14.1927 11.0329 14.2508C11.0578 14.309 11.0959 14.3605 11.1443 14.4013C11.1926 14.4422 11.2497 14.4712 11.3112 14.486C11.3727 14.5009 11.4368 14.5013 11.4984 14.487L14.5835 13.7751C14.8721 13.7084 15.1329 13.9627 15.0736 14.2529L14.157 18.7413C14.0954 19.0434 14.3789 19.3016 14.6739 19.212L16.5794 18.6331C16.8748 18.5434 17.1587 18.8024 17.0962 19.1047L15.6396 26.1548C15.5485 26.5959 16.135 26.8363 16.3796 26.4583L16.5431 26.2058L25.5723 8.18615C25.7236 7.88445 25.4627 7.54042 25.1315 7.60442L21.9558 8.21727C21.6575 8.2748 21.4036 7.99689 21.4878 7.70503L23.5604 0.519967C23.6447 0.22736 23.3897 -0.0506788 23.091 0.00784257Z" fill="url(#paint0_linear_105_2)"/>
</g>
<defs>
<linearGradient id="paint0_linear_105_2" x1="644.998" y1="59.74" x2="977.211" y2="2338.64" gradientUnits="userSpaceOnUse">
<stop stop-color="white"/>
<stop offset="0.08333" stop-color="#FFDD35"/>
<stop offset="1" stop-color="#FFA800"/>
</linearGradient>
<clipPath id="clip0_105_2">
<rect width="31.88" height="32" fill="white"/>
</clipPath>
</defs>
</svg>
